<?xml version="1.0" standalone="no"?>
<!DOCTYPE svg PUBLIC "-//W3C//DTD SVG 20010904//EN"
 "http://www.w3.org/TR/2001/REC-SVG-20010904/DTD/svg10.dtd">
<svg version="1.0" xmlns="http://www.w3.org/2000/svg"
 width="3000.000000pt" height="3000.000000pt" viewBox="0 0 3000.000000 3000.000000"
 preserveAspectRatio="xMidYMid meet">
<metadata>
Created by potrace 1.14, written by Peter Selinger 2001-2017
</metadata>
<g transform="translate(0.000000,3000.000000) scale(0.100000,-0.100000)"
fill="#000000" stroke="none">
<path d="M0 15000 l0 -15000 3760 0 3760 0 0 5049 0 5049 65 7 c36 4 65 11 65
15 0 5 27 11 60 15 33 4 60 11 60 15 0 4 20 11 45 14 25 4 45 11 45 16 0 6 18
13 40 16 22 4 40 10 40 14 0 5 14 11 30 15 17 4 30 10 30 15 0 5 13 11 30 15
16 4 30 10 30 15 0 5 14 11 30 15 17 4 30 10 30 15 0 5 13 11 29 15 16 3 32
13 35 21 3 8 12 14 21 14 8 0 15 4 15 10 0 5 11 12 24 16 14 3 27 12 30 20 3
8 11 14 17 14 6 0 22 11 35 25 13 14 27 25 33 25 5 0 23 13 39 30 17 16 33 30
37 30 9 0 265 256 265 265 0 4 18 24 39 45 21 21 42 47 45 58 4 11 13 23 21
26 8 3 15 12 15 21 0 8 4 15 10 15 5 0 12 11 16 24 3 14 12 27 20 30 8 3 14
12 14 21 0 8 4 15 10 15 5 0 12 11 16 24 3 14 12 27 20 30 8 3 14 12 14 21 0
8 4 15 10 15 5 0 12 11 16 25 3 14 10 25 14 25 5 0 11 13 15 29 3 16 13 32 21
35 8 3 14 12 14 21 0 8 4 15 9 15 5 0 12 13 16 30 4 16 10 30 15 30 5 0 11 13
15 30 4 16 10 30 15 30 5 0 11 13 15 30 4 16 10 30 15 30 4 0 10 18 14 40 3
22 10 40 16 40 5 0 12 16 16 35 3 19 10 35 15 35 5 0 12 18 15 40 4 22 10 40
15 40 4 0 11 20 15 45 3 25 10 45 15 45 4 0 11 20 15 45 3 25 11 45 16 45 5 0
3 7 -6 15 -8 8 -20 15 -26 15 -6 0 -13 6 -16 14 -3 8 -19 18 -35 21 -16 4 -29
11 -29 16 0 5 -11 11 -25 15 -14 3 -25 10 -25 14 0 5 -13 11 -29 15 -16 3 -32
13 -35 21 -3 8 -12 14 -21 14 -8 0 -15 4 -15 9 0 5 -13 12 -30 16 -16 4 -30
11 -30 16 0 5 -11 11 -25 15 -14 3 -25 10 -25 14 0 5 -13 11 -29 15 -16 3 -32
13 -35 21 -3 8 -12 14 -21 14 -8 0 -15 4 -15 9 0 5 -11 12 -25 15 -14 4 -25
10 -25 15 0 5 -13 12 -30 16 -16 4 -30 11 -30 16 0 5 -7 9 -15 9 -9 0 -18 6
-21 14 -3 8 -19 18 -35 21 -16 4 -29 10 -29 15 0 4 -11 11 -25 14 -14 4 -25
10 -25 15 0 5 -13 12 -29 16 -16 3 -32 13 -35 21 -3 8 -12 14 -21 14 -8 0 -15
4 -15 9 0 5 -13 12 -30 16 -16 4 -30 11 -30 16 0 5 -11 11 -25 15 -14 3 -25
10 -25 14 0 5 -13 11 -29 15 -16 3 -32 13 -35 21 -3 8 -12 14 -21 14 -8 0 -15
4 -15 9 0 5 -13 12 -30 16 -16 4 -30 11 -30 16 0 5 -11 11 -25 15 -14 3 -25
10 -25 15 0 5 -7 9 -15 9 -9 0 -18 6 -21 14 -3 8 -19 18 -35 21 -16 4 -29 10
-29 15 0 4 -11 11 -25 14 -14 4 -25 10 -25 15 0 5 -13 12 -30 16 -16 4 -30 11
-30 16 0 5 -7 9 -15 9 -9 0 -18 6 -21 14 -3 8 -19 18 -35 21 -16 4 -29 10 -29
15 0 4 -11 11 -25 14 -14 4 -25 10 -25 15 0 5 -13 12 -29 16 -16 3 -32 13 -35
21 -3 8 -12 14 -21 14 -8 0 -15 4 -15 9 0 5 -12 12 -26 15 -53 14 -64 34 -57
114 3 40 9 72 13 72 4 0 11 11 14 24 4 17 15 26 36 31 16 4 30 10 30 15 0 4
11 11 25 14 14 4 25 10 25 15 0 5 14 12 30 16 17 4 30 11 30 16 0 5 7 9 15 9
9 0 18 6 21 14 3 8 19 18 35 21 16 4 29 11 29 16 0 5 11 11 25 15 14 3 25 10
25 14 0 5 13 11 29 15 16 3 32 13 35 21 3 8 12 14 21 14 8 0 15 4 15 9 0 5 14
12 30 16 17 4 30 11 30 16 0 5 11 11 25 15 14 3 25 10 25 14 0 5 13 11 29 15
16 3 32 13 35 21 3 8 12 14 21 14 8 0 15 4 15 9 0 5 11 12 25 15 14 4 25 10
25 15 0 5 14 12 30 16 17 4 30 11 30 16 0 5 7 9 15 9 9 0 18 6 21 14 3 8 19
18 35 21 16 4 29 10 29 15 0 4 11 11 25 14 14 4 25 10 25 15 0 5 13 12 29 16
16 3 32 13 35 21 3 8 12 14 21 14 8 0 15 4 15 9 0 5 14 12 30 16 17 4 30 11
30 16 0 5 11 11 25 15 14 3 25 10 25 14 0 5 13 11 29 15 16 3 32 13 35 21 3 8
12 14 21 14 8 0 15 4 15 9 0 5 14 12 30 16 17 4 30 11 30 16 0 5 11 11 25 15
14 3 25 10 25 15 0 5 7 9 15 9 9 0 18 6 21 14 3 8 19 18 35 21 16 4 29 10 29
15 0 4 11 11 25 14 14 4 25 10 25 15 0 5 14 12 30 16 17 4 30 11 30 16 0 5 7
9 15 9 9 0 18 6 21 14 3 8 19 18 35 21 16 4 29 10 29 15 0 4 11 11 25 14 24 6
36 26 15 26 -5 0 -12 23 -16 50 -4 27 -10 50 -15 50 -5 0 -12 18 -15 40 -4 22
-10 40 -15 40 -4 0 -11 20 -15 45 -3 25 -10 45 -14 45 -5 0 -11 13 -15 30 -4
16 -10 30 -15 30 -4 0 -11 16 -14 35 -4 19 -11 35 -16 35 -4 0 -11 14 -15 30
-4 17 -10 30 -15 30 -5 0 -11 13 -15 30 -4 16 -10 30 -15 30 -5 0 -11 14 -15
30 -4 17 -10 30 -15 30 -5 0 -11 14 -15 30 -4 16 -10 30 -15 30 -4 0 -11 11
-14 25 -4 14 -10 25 -15 25 -5 0 -12 13 -16 29 -3 16 -13 32 -21 35 -8 3 -14
12 -14 21 0 8 -4 15 -10 15 -5 0 -12 11 -16 24 -3 14 -12 27 -20 30 -8 3 -14
12 -14 21 0 8 -4 15 -9 15 -5 0 -13 9 -16 21 -4 11 -20 34 -36 52 -16 18 -41
44 -54 59 -14 15 -25 30 -25 34 0 4 -20 27 -45 51 -25 23 -45 47 -45 52 0 12
-119 131 -131 131 -5 0 -29 20 -52 45 -24 25 -49 45 -56 45 -13 0 -5 40 10 50
4 3 11 18 14 33 4 15 11 27 16 27 5 0 9 7 9 15 0 9 6 18 14 21 8 3 18 19 21
35 4 16 10 29 15 29 4 0 11 11 14 25 4 14 10 25 15 25 5 0 12 14 16 30 4 16
11 30 16 30 5 0 9 7 9 15 0 9 6 18 14 21 8 3 17 16 20 30 4 13 10 24 15 24 5
0 12 13 16 29 3 16 13 32 21 35 8 3 14 12 14 21 0 8 4 15 10 15 5 0 12 11 16
25 3 14 10 25 15 25 5 0 9 7 9 15 0 9 6 18 14 21 8 3 17 16 20 30 4 13 11 24
16 24 6 0 10 7 10 15 0 9 7 18 15 21 8 4 15 12 15 20 0 8 9 22 20 31 11 10 20
23 20 30 0 7 4 13 10 13 5 0 12 11 16 24 3 14 12 27 20 30 8 3 14 11 14 17 0
6 11 22 24 34 13 12 27 31 30 43 4 11 13 23 21 26 8 3 15 11 15 17 0 6 11 22
24 34 13 12 27 31 30 43 4 11 13 23 21 26 8 3 15 10 15 16 0 7 14 25 30 42 17
16 30 35 30 41 1 7 14 23 30 37 17 13 30 28 30 33 0 5 20 29 45 54 25 24 45
49 45 54 0 5 20 29 45 52 25 24 45 47 45 51 0 5 38 46 85 92 47 47 85 89 85
94 0 11 299 310 310 310 5 0 47 38 94 85 46 47 87 85 92 85 4 0 27 20 51 45
23 25 47 45 52 45 6 0 25 16 44 35 19 19 37 35 42 35 4 0 24 18 45 39 21 21
47 42 58 45 11 4 23 13 26 21 3 8 10 15 16 15 7 0 25 14 42 30 16 17 34 30 39
30 6 0 20 11 33 25 13 14 27 25 32 25 5 0 17 9 27 20 9 11 23 20 31 20 8 0 16
7 20 15 3 8 11 15 17 15 6 0 22 11 34 24 12 13 32 27 43 31 12 3 22 11 22 16
0 5 7 9 15 9 9 0 18 7 21 15 4 8 12 15 20 15 8 0 22 9 31 20 10 11 23 20 30
20 7 0 13 4 13 10 0 5 11 12 25 16 14 3 25 10 25 15 0 5 7 9 15 9 9 0 18 6 21
14 3 8 16 17 30 20 13 4 24 11 24 16 0 6 7 10 15 10 9 0 18 6 21 14 3 8 19 18
35 21 16 4 29 11 29 16 0 5 11 11 25 15 14 3 25 10 25 15 0 5 7 9 15 9 9 0 18
6 21 14 3 8 19 18 35 21 16 4 29 11 29 16 0 5 11 11 25 15 14 3 25 10 25 14 0
5 14 11 30 15 17 4 30 11 30 16 0 5 7 9 15 9 9 0 18 6 21 14 3 8 19 18 35 21
16 4 29 10 29 15 0 5 14 11 30 15 17 4 30 10 30 15 0 5 14 11 30 15 17 4 30
10 30 15 0 5 14 11 30 15 17 4 30 10 30 15 0 5 14 11 30 15 17 4 30 10 30 15
0 5 14 11 30 15 17 4 30 10 30 15 0 5 14 11 30 15 17 4 30 10 30 15 0 5 14 11
30 15 17 4 30 11 30 16 0 5 18 12 40 15 22 4 40 10 40 14 0 5 14 11 30 15 17
4 30 11 30 15 0 5 16 12 35 16 19 3 35 10 35 15 0 5 18 12 40 15 22 4 40 10
40 15 0 4 16 11 35 15 19 3 35 10 35 15 0 5 18 12 40 15 22 4 40 10 40 15 0 4
16 11 35 15 19 3 35 10 35 14 0 4 18 10 40 14 22 3 40 10 40 16 0 5 20 12 45
16 25 3 45 10 45 15 0 4 20 11 45 15 25 3 45 10 45 15 0 4 20 11 45 15 25 3
45 10 45 15 0 4 23 11 50 15 28 4 50 10 50 14 0 4 20 11 45 14 25 4 45 11 45
16 0 4 27 11 60 15 33 4 60 11 60 15 0 5 25 12 55 15 30 4 55 11 55 15 0 4 27
11 60 15 33 4 60 10 60 15 0 4 29 11 65 15 36 3 65 10 65 15 0 4 34 11 75 15
41 4 75 10 75 15 0 4 38 11 85 15 47 4 85 11 85 15 0 4 41 11 90 15 50 4 90
11 90 15 0 4 53 11 118 15 64 4 119 11 122 15 3 5 73 12 155 16 89 4 153 11
157 18 10 15 1066 15 1076 0 4 -7 68 -14 157 -18 82 -4 152 -11 155 -16 3 -4
58 -11 123 -15 64 -4 117 -11 117 -15 0 -4 41 -11 90 -15 50 -4 90 -11 90 -15
0 -4 38 -11 85 -15 47 -4 85 -11 85 -15 0 -5 34 -11 75 -15 41 -4 75 -11 75
-15 0 -5 29 -12 65 -15 36 -4 65 -11 65 -15 0 -5 27 -11 60 -15 33 -4 60 -11
60 -15 0 -4 25 -11 55 -15 30 -3 55 -10 55 -15 0 -4 27 -11 60 -15 33 -4 60
-11 60 -15 0 -5 20 -12 45 -16 25 -3 45 -10 45 -14 0 -4 23 -10 50 -14 28 -4
50 -11 50 -15 0 -5 20 -12 45 -15 25 -4 45 -11 45 -15 0 -5 20 -12 45 -15 25
-4 45 -11 45 -15 0 -5 20 -12 45 -15 25 -4 45 -11 45 -16 0 -6 18 -13 40 -16
22 -4 40 -10 40 -14 0 -4 16 -11 35 -14 19 -4 35 -11 35 -15 0 -5 18 -11 40
-15 22 -3 40 -10 40 -15 0 -5 16 -12 35 -15 19 -4 35 -11 35 -15 0 -5 18 -11
40 -15 22 -3 40 -10 40 -15 0 -5 16 -12 35 -15 19 -4 35 -11 35 -16 0 -4 14
-11 30 -15 17 -4 30 -10 30 -15 0 -4 18 -10 40 -14 22 -3 40 -10 40 -15 0 -5
14 -12 30 -16 17 -4 30 -10 30 -15 0 -5 14 -11 30 -15 17 -4 30 -10 30 -15 0
-5 14 -11 30 -15 17 -4 30 -10 30 -15 0 -5 14 -11 30 -15 17 -4 30 -10 30 -15
0 -5 14 -11 30 -15 17 -4 30 -10 30 -15 0 -5 14 -11 30 -15 17 -4 30 -10 30
-15 0 -5 14 -11 30 -15 17 -4 30 -10 30 -15 0 -5 13 -11 29 -15 16 -3 32 -13
35 -21 3 -8 12 -14 21 -14 8 0 15 -4 15 -9 0 -5 14 -12 30 -16 17 -4 30 -10
30 -15 0 -4 11 -11 25 -14 14 -4 25 -10 25 -15 0 -5 13 -12 29 -16 16 -3 32
-13 35 -21 3 -8 12 -14 21 -14 8 0 15 -4 15 -9 0 -5 11 -12 25 -15 14 -4 25
-10 25 -15 0 -5 13 -12 29 -16 16 -3 32 -13 35 -21 3 -8 12 -14 21 -14 8 0 15
-4 15 -10 0 -5 11 -12 24 -16 14 -3 27 -12 30 -20 3 -8 12 -14 21 -14 8 0 15
-4 15 -9 0 -5 11 -12 25 -15 14 -4 25 -11 25 -16 0 -6 6 -10 13 -10 7 0 20 -9
30 -20 9 -11 23 -20 31 -20 8 0 16 -7 20 -15 3 -8 12 -15 21 -15 8 0 15 -4 15
-9 0 -5 10 -13 22 -16 11 -4 31 -17 42 -29 12 -13 29 -25 39 -29 9 -3 17 -11
17 -17 0 -5 7 -10 15 -10 8 0 23 -9 32 -20 10 -11 22 -20 27 -20 5 0 19 -11
32 -25 13 -14 27 -25 33 -25 5 0 22 -13 38 -28 15 -16 36 -31 46 -35 9 -3 17
-11 17 -16 0 -5 9 -13 21 -16 11 -4 38 -25 59 -46 21 -21 41 -39 45 -39 5 0
23 -16 42 -35 19 -19 38 -35 44 -35 5 0 29 -20 52 -45 24 -25 47 -45 51 -45 5
0 46 -38 92 -85 47 -47 89 -85 94 -85 11 0 310 -299 310 -310 0 -5 38 -47 85
-94 47 -46 85 -87 85 -92 0 -4 20 -27 45 -51 25 -23 45 -47 45 -52 0 -5 20
-30 45 -54 25 -25 45 -49 45 -54 0 -5 13 -20 30 -33 16 -14 29 -30 30 -37 0
-6 14 -25 30 -41 17 -17 30 -35 30 -42 0 -6 7 -13 15 -16 8 -3 17 -15 21 -26
3 -12 17 -31 30 -43 13 -12 24 -28 24 -34 0 -6 7 -14 15 -17 8 -3 17 -15 21
-26 3 -12 17 -31 30 -43 13 -12 24 -28 24 -34 0 -6 6 -14 14 -17 8 -3 17 -16
20 -30 4 -13 11 -24 16 -24 6 0 10 -6 10 -13 0 -7 9 -20 20 -30 11 -9 20 -23
20 -31 0 -8 7 -16 15 -20 8 -3 15 -12 15 -21 0 -8 4 -15 10 -15 5 0 12 -11 16
-24 3 -14 12 -27 20 -30 8 -3 14 -12 14 -21 0 -8 4 -15 9 -15 5 0 12 -11 15
-25 4 -14 11 -25 16 -25 6 0 10 -7 10 -15 0 -9 6 -18 14 -21 8 -3 18 -19 21
-35 4 -16 11 -29 16 -29 5 0 11 -11 15 -24 3 -14 12 -27 20 -30 8 -3 14 -12
14 -21 0 -8 4 -15 9 -15 5 0 12 -13 16 -30 4 -16 11 -30 16 -30 5 0 11 -11 15
-25 3 -14 10 -25 14 -25 5 0 11 -13 15 -29 3 -16 13 -32 21 -35 8 -3 14 -12
14 -21 0 -8 4 -15 9 -15 5 0 12 -14 16 -30 4 -16 11 -30 16 -30 22 0 4 -27
-61 -91 -38 -38 -70 -74 -70 -79 0 -5 -16 -24 -35 -43 -19 -19 -35 -38 -35
-42 0 -4 -11 -18 -24 -30 -13 -12 -27 -31 -30 -43 -4 -11 -13 -23 -21 -26 -8
-3 -15 -12 -15 -21 0 -8 -4 -15 -10 -15 -5 0 -12 -11 -16 -24 -3 -14 -12 -27
-20 -30 -8 -3 -14 -12 -14 -20 0 -7 -7 -16 -15 -20 -8 -3 -15 -12 -15 -21 0
-8 -4 -15 -9 -15 -5 0 -12 -11 -15 -25 -4 -14 -10 -25 -15 -25 -5 0 -12 -14
-16 -30 -4 -16 -10 -30 -15 -30 -5 0 -11 -13 -15 -29 -3 -16 -13 -32 -21 -35
-8 -3 -14 -12 -14 -21 0 -8 -4 -15 -9 -15 -5 0 -12 -13 -16 -30 -4 -16 -10
-30 -15 -30 -4 0 -10 -18 -14 -40 -3 -22 -10 -40 -15 -40 -5 0 -12 -14 -16
-30 -4 -17 -10 -30 -15 -30 -4 0 -11 -16 -14 -35 -4 -19 -11 -35 -15 -35 -5 0
-12 -20 -15 -45 -4 -25 -11 -45 -15 -45 -5 0 -11 -18 -15 -40 -3 -22 -10 -40
-15 -40 -5 0 -11 -22 -15 -50 -4 -27 -11 -50 -16 -50 -5 0 -12 -25 -15 -55 -4
-30 -11 -55 -15 -55 -4 0 -11 -27 -15 -60 -4 -33 -11 -60 -15 -60 -5 0 -11
-34 -15 -75 -4 -41 -11 -75 -15 -75 -4 0 -11 -42 -15 -92 -4 -51 -11 -95 -16
-98 -4 -3 -11 -83 -15 -178 -4 -95 -11 -172 -16 -172 -4 0 -8 -67 -8 -150 0
-82 4 -150 8 -150 5 0 12 -80 16 -177 4 -98 11 -180 15 -183 5 -3 12 -47 16
-97 4 -51 11 -93 15 -93 4 0 11 -31 14 -70 4 -38 11 -70 16 -70 4 0 11 -27 15
-60 4 -33 10 -60 15 -60 4 0 10 -23 14 -50 4 -28 11 -50 15 -50 5 0 12 -25 16
-55 3 -30 10 -55 15 -55 5 0 12 -20 16 -45 3 -25 10 -45 15 -45 4 0 11 -16 15
-35 3 -19 10 -35 15 -35 5 0 12 -18 15 -40 4 -22 10 -40 14 -40 5 0 11 -14 15
-30 4 -17 10 -30 15 -30 4 0 11 -16 14 -35 4 -19 11 -35 16 -35 4 0 11 -14 15
-30 4 -17 10 -30 15 -30 5 0 11 -14 15 -30 4 -16 10 -30 15 -30 4 0 11 -11 14
-25 4 -14 10 -25 15 -25 5 0 12 -14 16 -30 4 -17 11 -30 16 -30 5 0 9 -7 9
-15 0 -9 6 -18 14 -21 8 -3 17 -16 20 -30 4 -13 11 -24 16 -24 6 0 10 -7 10
-15 0 -9 6 -18 14 -21 8 -3 17 -16 20 -30 4 -13 11 -24 16 -24 6 0 10 -7 10
-15 0 -9 7 -18 15 -21 8 -4 15 -12 15 -20 0 -8 9 -22 20 -31 11 -10 20 -21 20
-26 0 -5 14 -22 30 -39 17 -16 30 -33 30 -38 0 -13 290 -300 303 -300 7 -1 23
-14 37 -30 13 -17 30 -30 37 -30 7 0 13 -4 13 -9 0 -5 10 -13 22 -16 11 -4 31
-18 43 -30 11 -13 33 -27 47 -30 15 -4 29 -13 32 -21 3 -8 12 -14 21 -14 8 0
15 -4 15 -9 0 -5 11 -12 25 -15 14 -4 25 -10 25 -15 0 -5 14 -12 30 -16 17 -4
30 -10 30 -15 0 -5 14 -11 30 -15 17 -4 30 -10 30 -15 0 -4 16 -11 35 -14 19
-4 35 -11 35 -15 0 -5 18 -11 40 -15 22 -3 40 -11 40 -16 0 -5 23 -12 50 -16
28 -4 50 -10 50 -15 0 -5 14 -9 30 -9 l30 0 0 -5145 0 -5145 3760 0 3760 0 0
15000 0 15000 -15000 0 -15000 0 0 -15000z m13070 11781 c0 -5 13 -11 29 -14
34 -7 71 -35 71 -54 0 -7 5 -13 10 -13 6 0 10 -32 10 -75 0 -41 -4 -75 -9 -75
-4 0 -12 -31 -15 -70 -4 -38 -11 -70 -15 -70 -5 0 -11 -22 -15 -50 -4 -27 -11
-50 -16 -50 -5 0 -13 -18 -16 -40 -4 -22 -10 -40 -14 -40 -4 0 -11 -16 -14
-35 -4 -19 -11 -35 -16 -35 -4 0 -11 -13 -15 -30 -4 -16 -10 -30 -15 -30 -4 0
-10 -18 -14 -40 -3 -22 -10 -40 -15 -40 -5 0 -12 -13 -16 -30 -4 -16 -10 -30
-15 -30 -5 0 -11 -13 -15 -30 -4 -16 -11 -30 -16 -30 -5 0 -9 -7 -9 -15 0 -9
-6 -18 -14 -21 -8 -3 -18 -19 -21 -35 -4 -16 -10 -29 -15 -29 -4 0 -11 -11
-14 -25 -4 -14 -10 -25 -15 -25 -5 0 -12 -13 -16 -30 -4 -16 -11 -30 -16 -30
-5 0 -9 -7 -9 -15 0 -9 -6 -18 -14 -21 -8 -3 -17 -16 -20 -30 -4 -13 -10 -24
-15 -24 -5 0 -12 -13 -16 -29 -3 -16 -13 -32 -21 -35 -8 -3 -14 -12 -14 -21 0
-8 -4 -15 -10 -15 -5 0 -12 -11 -16 -24 -3 -14 -12 -27 -20 -30 -8 -3 -14 -12
-14 -21 0 -8 -4 -15 -10 -15 -5 0 -12 -11 -16 -25 -3 -14 -10 -25 -15 -25 -5
0 -13 -8 -16 -17 -4 -10 -13 -24 -20 -31 -7 -7 -13 -36 -13 -63 0 -27 -4 -49
-10 -49 -5 0 -10 6 -10 13 0 12 -43 57 -55 57 -3 0 -20 14 -37 30 -16 17 -34
30 -39 30 -13 0 -89 80 -89 94 -1 6 -14 22 -30 36 -17 13 -30 30 -30 37 0 7
-4 13 -10 13 -5 0 -12 11 -16 25 -3 14 -10 25 -14 25 -5 0 -11 14 -15 30 -4
17 -11 30 -15 30 -5 0 -12 16 -16 35 -3 19 -10 35 -14 35 -4 0 -10 19 -14 42
-4 23 -12 46 -19 50 -16 10 -17 375 -1 386 6 4 15 26 19 50 4 23 11 42 16 42
5 0 12 18 15 39 4 22 13 42 20 45 8 3 14 12 14 21 0 8 5 15 10 15 6 0 10 7 10
15 0 8 9 23 20 32 11 10 20 21 20 26 0 11 116 127 127 127 5 0 16 9 26 20 9
11 23 20 31 20 8 0 16 7 20 15 3 8 12 15 21 15 8 0 15 5 15 10 0 6 6 10 14 10
8 0 21 6 28 14 8 7 29 17 46 21 18 3 32 11 32 16 0 5 18 12 40 15 22 4 40 10
40 14 0 5 27 11 60 15 33 4 60 11 60 16 0 5 54 9 120 9 66 0 120 -4 120 -9z
m-439 -1754 c15 -15 41 -30 58 -33 17 -4 31 -10 31 -14 0 -4 18 -10 40 -14 22
-3 40 -10 40 -15 0 -5 16 -12 35 -15 19 -4 35 -11 35 -15 0 -5 18 -11 40 -15
22 -3 40 -10 40 -16 0 -5 16 -12 35 -16 19 -3 35 -10 35 -14 0 -5 14 -11 30
-15 17 -4 30 -11 30 -16 0 -5 18 -12 40 -15 22 -4 40 -10 40 -14 0 -5 14 -11
30 -15 17 -4 30 -10 30 -15 0 -5 14 -11 30 -15 17 -4 30 -10 30 -15 0 -5 14
-11 30 -15 17 -4 30 -11 30 -16 0 -5 7 -9 15 -9 9 0 18 -6 21 -14 3 -8 19 -18
35 -21 16 -4 29 -10 29 -15 0 -4 11 -11 25 -14 14 -4 25 -10 25 -15 0 -5 13
-12 29 -16 16 -3 32 -13 35 -21 3 -8 12 -14 21 -14 8 0 15 -4 15 -10 0 -5 11
-12 25 -16 14 -3 25 -10 25 -15 0 -5 8 -13 18 -16 9 -4 27 -17 39 -30 12 -13
27 -23 32 -23 6 0 25 -16 44 -35 19 -19 37 -35 41 -35 10 0 66 -57 66 -67 0
-5 13 -20 29 -34 17 -15 33 -38 37 -53 3 -14 10 -26 15 -26 5 0 9 -18 9 -40 0
-22 -5 -40 -10 -40 -6 0 -14 -8 -17 -17 -9 -24 -67 -83 -82 -83 -6 0 -11 -4
-11 -10 0 -5 -11 -12 -24 -16 -14 -3 -27 -12 -30 -20 -3 -8 -12 -14 -21 -14
-8 0 -15 -4 -15 -9 0 -5 -13 -12 -30 -16 -16 -4 -30 -10 -30 -15 0 -4 -20 -11
-45 -14 -25 -4 -45 -11 -45 -16 0 -5 -26 -12 -57 -16 -32 -4 -61 -11 -65 -17
-9 -15 -337 -14 -346 0 -4 6 -28 13 -54 17 -27 4 -48 11 -48 16 0 6 -18 13
-40 16 -22 4 -40 10 -40 15 0 5 -7 9 -15 9 -9 0 -18 6 -21 14 -3 8 -17 17 -31
21 -14 3 -39 19 -55 36 -16 16 -34 29 -38 29 -12 0 -80 68 -80 80 0 4 -13 22
-29 38 -17 16 -33 41 -36 55 -4 14 -13 28 -21 31 -8 3 -14 12 -14 21 0 8 -4
15 -10 15 -5 0 -12 17 -16 38 -4 20 -11 40 -16 43 -5 3 -11 23 -15 45 -3 21
-10 41 -14 44 -5 3 -11 38 -15 78 -4 40 -11 72 -15 72 -5 0 -9 34 -9 75 0 41
4 75 9 75 4 0 11 32 15 72 4 40 10 75 15 78 4 3 11 23 14 45 4 22 11 41 17 43
5 2 10 25 11 50 0 26 3 40 6 32 4 -8 19 -27 34 -43z m12989 -1037 c0 -5 6 -10
13 -10 14 0 40 -27 50 -53 3 -9 11 -17 16 -17 5 0 12 -13 16 -30 4 -16 10 -30
15 -30 4 0 10 -19 14 -42 4 -23 11 -45 17 -49 5 -3 12 -45 16 -92 3 -48 10
-87 14 -87 5 0 9 -27 9 -60 0 -33 -4 -60 -9 -60 -4 0 -11 -39 -14 -87 -4 -47
-10 -89 -15 -92 -5 -3 -13 -25 -17 -48 -4 -24 -10 -43 -15 -43 -4 0 -10 -18
-14 -40 -3 -22 -11 -40 -16 -40 -6 0 -10 -7 -10 -15 0 -9 -6 -18 -14 -21 -8
-3 -17 -17 -21 -31 -3 -14 -19 -39 -36 -55 -16 -16 -29 -34 -29 -39 0 -13 -50
-59 -64 -59 -6 -1 -22 -14 -36 -30 -13 -17 -30 -30 -37 -30 -7 0 -13 -4 -13
-10 0 -5 -11 -12 -25 -16 -14 -3 -25 -10 -25 -14 0 -5 -13 -11 -30 -15 -16 -4
-30 -11 -30 -15 0 -5 -16 -12 -35 -16 -19 -3 -35 -10 -35 -14 0 -5 -24 -11
-52 -15 -29 -4 -56 -12 -60 -19 -10 -15 -326 -15 -336 1 -4 6 -31 14 -59 18
-29 4 -53 10 -53 15 0 4 -16 11 -35 14 -19 4 -35 11 -35 16 0 4 -13 11 -30 15
-16 4 -30 10 -30 15 0 4 -11 11 -25 14 -14 4 -25 11 -25 16 0 6 -7 10 -15 10
-7 0 -18 7 -23 16 -5 8 -27 18 -50 21 -49 7 -54 18 -12 27 32 6 100 64 100 85
0 6 4 11 10 11 5 0 12 11 16 25 3 14 10 25 15 25 5 0 13 8 16 18 4 9 16 26 29
38 12 11 25 31 29 42 3 12 11 22 16 22 5 0 13 8 16 18 4 9 19 30 35 45 15 16
28 33 28 38 0 6 11 20 25 33 14 13 25 27 25 31 0 4 16 23 35 42 19 19 35 38
35 43 0 6 27 36 60 68 33 33 60 62 60 66 0 9 185 196 195 196 3 0 27 20 52 45
24 25 49 45 54 45 6 0 20 11 33 25 13 14 29 25 35 25 6 0 14 6 17 14 3 8 16
17 30 20 13 4 24 10 24 15 0 5 14 12 30 16 17 4 30 10 30 15 0 5 20 12 45 16
25 3 45 10 45 15 0 5 14 9 30 9 17 0 30 -4 30 -10z m-2600 -149 c0 -4 19 -11
41 -14 23 -3 45 -10 48 -15 3 -5 23 -12 44 -16 20 -4 37 -11 37 -16 0 -4 13
-11 29 -15 16 -3 32 -13 35 -21 3 -8 12 -14 21 -14 8 0 15 -4 15 -9 0 -5 11
-12 25 -15 14 -4 25 -11 25 -16 0 -6 7 -10 15 -10 9 0 18 -7 21 -15 3 -8 15
-17 26 -21 12 -3 31 -17 43 -30 12 -13 26 -24 32 -24 5 0 20 -13 33 -30 14
-16 30 -29 37 -30 6 0 32 -20 56 -45 25 -25 48 -45 52 -45 9 0 415 -406 415
-415 0 -17 130 -135 149 -135 11 0 21 -4 21 -9 0 -5 8 -12 18 -14 10 -3 6 -5
-10 -6 -16 0 -28 -5 -28 -11 0 -5 -6 -10 -13 -10 -7 0 -24 -13 -38 -29 -14
-15 -35 -31 -47 -35 -12 -4 -22 -12 -22 -17 0 -5 -7 -9 -15 -9 -9 0 -18 -6
-21 -14 -3 -8 -19 -18 -35 -21 -16 -4 -29 -10 -29 -15 0 -5 -13 -11 -30 -15
-16 -4 -30 -10 -30 -15 0 -4 -19 -10 -42 -14 -23 -4 -45 -11 -48 -16 -3 -5
-38 -12 -78 -16 -40 -4 -72 -11 -72 -15 0 -5 -40 -9 -90 -9 -49 0 -90 4 -90 9
0 4 -32 11 -72 15 -40 4 -75 10 -78 15 -3 4 -22 11 -42 15 -21 4 -38 11 -38
16 0 6 -9 10 -19 10 -11 0 -26 7 -34 15 -8 7 -26 17 -40 20 -14 4 -28 13 -31
21 -3 8 -10 14 -16 14 -15 0 -190 175 -190 190 0 6 -6 13 -14 16 -8 3 -18 19
-21 35 -4 16 -10 29 -15 29 -5 0 -11 14 -15 30 -4 17 -10 30 -15 30 -4 0 -11
20 -14 45 -4 25 -11 45 -16 45 -4 0 -11 24 -15 53 -4 28 -12 55 -18 59 -15 9
-15 347 0 356 7 4 15 27 19 50 4 23 10 42 14 42 5 0 11 13 15 29 3 16 13 32
21 35 8 3 14 12 14 21 0 8 7 15 15 15 8 0 15 5 15 10 0 6 20 10 45 10 25 0 45
-4 45 -9z m20 -8340 c0 -5 41 -12 90 -15 50 -4 90 -11 90 -15 0 -5 23 -11 50
-15 28 -4 50 -10 50 -15 0 -5 18 -11 40 -15 22 -3 40 -10 40 -15 0 -5 14 -13
32 -16 17 -4 38 -14 46 -21 7 -8 20 -14 28 -14 8 0 14 -4 14 -9 0 -5 12 -12
26 -15 14 -4 36 -18 48 -31 13 -14 27 -25 31 -25 12 0 145 -137 145 -149 0 -6
4 -11 10 -11 5 0 12 -11 16 -24 3 -14 12 -27 20 -30 8 -3 14 -12 14 -21 0 -8
4 -15 9 -15 5 0 12 -19 16 -42 4 -24 12 -46 19 -50 16 -10 15 -256 -1 -266 -7
-4 -15 -27 -19 -50 -4 -23 -10 -42 -14 -42 -5 0 -11 -13 -15 -30 -4 -16 -11
-30 -16 -30 -5 0 -13 -8 -16 -17 -9 -24 -178 -193 -193 -193 -6 0 -13 -6 -16
-14 -3 -8 -16 -17 -30 -20 -13 -4 -24 -10 -24 -15 0 -5 -13 -12 -30 -16 -16
-4 -30 -10 -30 -15 0 -5 -13 -11 -30 -15 -16 -4 -30 -10 -30 -15 0 -4 -16 -11
-35 -14 -19 -4 -35 -11 -35 -15 0 -5 -24 -12 -52 -15 -29 -4 -55 -11 -58 -16
-3 -5 -45 -13 -93 -16 -48 -4 -87 -11 -87 -15 0 -5 -67 -9 -150 -9 -82 0 -150
4 -150 9 0 4 -35 11 -77 15 -42 3 -79 10 -82 15 -3 5 -30 12 -58 16 -29 4 -53
10 -53 15 0 4 -16 11 -35 14 -19 4 -35 11 -35 16 0 4 -13 11 -30 15 l-30 7 0
583 0 583 30 7 c17 4 30 10 30 15 0 4 16 11 35 14 19 4 35 11 35 15 0 5 24 12
52 15 29 4 55 11 58 17 4 5 48 12 98 15 51 4 92 11 92 15 0 5 59 9 130 9 72 0
130 -4 130 -9z m-15520 -120 c0 -4 32 -11 72 -15 40 -4 75 -10 78 -15 3 -4 26
-11 53 -15 26 -4 47 -11 47 -15 0 -5 18 -11 40 -15 22 -3 40 -10 40 -15 0 -5
14 -12 30 -16 17 -4 30 -10 30 -15 0 -5 13 -11 29 -15 16 -3 32 -13 35 -21 3
-8 12 -14 21 -14 8 0 15 -4 15 -9 0 -5 9 -13 20 -16 12 -4 58 -44 103 -91 101
-103 103 -105 111 -132 4 -12 11 -22 16 -22 5 0 12 -15 15 -32 4 -18 12 -36
16 -39 5 -3 12 -35 16 -72 3 -37 10 -67 14 -67 5 0 9 -16 9 -35 0 -19 -4 -35
-9 -35 -4 0 -11 -30 -14 -67 -4 -37 -11 -69 -16 -72 -4 -3 -12 -21 -16 -38 -3
-18 -10 -33 -15 -33 -4 0 -11 -12 -15 -27 -3 -15 -17 -37 -31 -50 -13 -12 -24
-26 -24 -31 0 -15 -106 -119 -128 -126 -11 -4 -23 -13 -26 -21 -3 -8 -12 -15
-21 -15 -8 0 -15 -4 -15 -9 0 -5 -11 -12 -25 -15 -14 -4 -25 -10 -25 -15 0 -5
-13 -12 -30 -16 -16 -4 -30 -10 -30 -15 0 -5 -13 -11 -30 -15 -16 -4 -30 -10
-30 -15 0 -5 -20 -12 -45 -16 -25 -3 -45 -10 -45 -15 0 -4 -21 -11 -47 -15
-27 -4 -51 -11 -54 -16 -3 -4 -56 -11 -117 -15 -62 -3 -112 -10 -112 -15 0 -4
-36 -8 -80 -8 -44 0 -80 4 -80 8 0 5 -46 12 -102 15 -56 4 -104 10 -107 15 -3
5 -30 13 -58 17 -29 4 -53 10 -53 15 0 4 -16 11 -35 14 -19 4 -35 11 -35 15 0
5 -18 11 -40 15 l-40 6 0 585 0 585 25 6 c14 3 25 10 25 15 0 4 16 11 35 15
19 3 35 10 35 14 0 5 24 11 53 15 28 4 54 11 57 16 3 5 38 11 78 15 40 4 72
11 72 15 0 5 81 9 180 9 99 0 180 -4 180 -9z"/>
<path d="M14730 10691 c0 -4 -46 -11 -102 -15 -57 -4 -105 -11 -108 -15 -3 -5
-33 -12 -67 -16 -35 -4 -63 -11 -63 -15 0 -4 -25 -11 -55 -15 -30 -3 -55 -10
-55 -15 0 -5 -20 -12 -45 -16 -25 -3 -45 -10 -45 -15 0 -4 -20 -11 -45 -15
-25 -3 -45 -10 -45 -15 0 -4 -16 -11 -35 -15 -19 -3 -35 -10 -35 -15 0 -5 -18
-12 -40 -15 -22 -4 -40 -10 -40 -14 0 -5 -13 -11 -30 -15 -16 -4 -30 -10 -30
-15 0 -5 -13 -11 -30 -15 -16 -4 -30 -11 -30 -16 0 -5 -7 -9 -15 -9 -9 0 -18
-6 -21 -14 -3 -8 -19 -18 -35 -21 -16 -4 -29 -10 -29 -15 0 -4 -11 -11 -25
-14 -14 -4 -25 -11 -25 -16 0 -6 -7 -10 -15 -10 -9 0 -18 -6 -21 -14 -3 -8
-16 -17 -30 -20 -13 -4 -24 -11 -24 -16 0 -6 -7 -10 -15 -10 -9 0 -18 -7 -21
-15 -4 -8 -12 -15 -20 -15 -8 0 -22 -9 -31 -20 -10 -11 -21 -20 -26 -20 -5 0
-22 -13 -39 -30 -16 -16 -34 -30 -38 -30 -5 0 -41 -31 -79 -70 -38 -38 -73
-70 -78 -70 -9 0 -43 -36 -43 -46 0 -4 -29 -35 -65 -71 -36 -35 -65 -70 -65
-76 -1 -7 -14 -23 -30 -37 -17 -13 -30 -28 -30 -33 0 -6 -11 -20 -24 -32 -13
-12 -27 -32 -31 -43 -3 -12 -11 -22 -16 -22 -5 0 -9 -7 -9 -15 0 -9 -6 -18
-14 -21 -8 -3 -17 -16 -20 -30 -4 -13 -11 -24 -16 -24 -6 0 -10 -7 -10 -15 0
-9 -6 -18 -14 -21 -8 -3 -18 -19 -21 -35 -4 -16 -10 -29 -15 -29 -4 0 -11 -11
-14 -25 -4 -14 -10 -25 -15 -25 -5 0 -12 -13 -16 -30 -4 -16 -10 -30 -15 -30
-5 0 -11 -13 -15 -30 -4 -16 -11 -30 -15 -30 -5 0 -12 -16 -16 -35 -3 -19 -10
-35 -14 -35 -5 0 -11 -13 -15 -30 -4 -16 -10 -30 -15 -30 -4 0 -11 -20 -14
-45 -4 -25 -11 -45 -16 -45 -6 0 -13 -18 -16 -40 -4 -22 -10 -40 -14 -40 -4 0
-10 -22 -14 -50 -4 -27 -11 -50 -15 -50 -5 0 -12 -27 -16 -60 -4 -33 -10 -60
-15 -60 -4 0 -11 -33 -15 -72 -3 -40 -11 -75 -16 -78 -5 -3 -12 -77 -15 -163
-4 -86 -11 -157 -16 -157 -4 0 -8 -40 -8 -90 0 -49 4 -90 8 -90 5 0 12 -68 15
-152 4 -83 10 -154 15 -157 5 -3 12 -37 16 -76 4 -38 11 -72 15 -75 5 -3 12
-31 16 -62 4 -32 11 -58 15 -58 4 0 11 -25 15 -55 3 -30 10 -55 15 -55 5 0 12
-20 16 -45 3 -25 10 -45 15 -45 4 0 11 -16 15 -35 3 -19 10 -35 15 -35 5 0 12
-18 15 -40 4 -22 10 -40 14 -40 5 0 11 -13 15 -30 4 -16 10 -30 15 -30 5 0 11
-13 15 -30 4 -16 10 -30 15 -30 5 0 11 -13 15 -30 4 -16 11 -30 16 -30 5 0 9
-7 9 -15 0 -9 6 -18 14 -21 8 -3 18 -19 21 -35 4 -16 11 -29 16 -29 5 0 11
-11 15 -25 3 -14 10 -25 15 -25 5 0 9 -7 9 -15 0 -9 7 -18 15 -21 8 -4 15 -12
15 -20 0 -8 9 -22 20 -31 11 -10 20 -23 20 -30 0 -7 4 -13 9 -13 5 0 13 -10
17 -22 4 -12 20 -33 35 -47 16 -14 29 -29 29 -34 0 -5 20 -29 45 -54 25 -24
45 -48 45 -53 0 -11 159 -170 170 -170 5 0 29 -20 53 -45 25 -25 49 -45 54
-45 5 0 20 -13 34 -29 14 -15 35 -31 47 -35 12 -4 22 -12 22 -17 0 -5 6 -9 13
-9 7 0 20 -9 30 -20 9 -11 23 -20 31 -20 8 0 16 -7 20 -15 3 -8 12 -15 21 -15
8 0 15 -4 15 -10 0 -5 11 -12 25 -16 14 -3 25 -10 25 -15 0 -5 7 -9 15 -9 9 0
18 -6 21 -14 3 -8 19 -18 35 -21 16 -4 29 -10 29 -15 0 -5 14 -11 30 -15 17
-4 30 -10 30 -15 0 -5 14 -11 30 -15 17 -4 30 -10 30 -15 0 -5 14 -11 30 -15
17 -4 30 -10 30 -15 0 -4 18 -10 40 -14 22 -3 40 -10 40 -16 0 -5 16 -12 35
-16 19 -3 35 -10 35 -14 0 -4 20 -11 45 -14 25 -4 45 -11 45 -15 0 -5 20 -12
45 -15 25 -4 45 -11 45 -16 0 -4 27 -11 60 -15 33 -4 60 -11 60 -15 0 -4 37
-11 83 -15 45 -4 85 -11 88 -16 3 -5 67 -12 142 -16 75 -3 137 -10 137 -15 0
-4 54 -8 120 -8 66 0 120 4 120 8 0 5 62 12 137 15 75 4 139 11 142 16 3 5 43
12 89 16 45 4 82 11 82 15 0 4 27 11 60 15 33 4 60 11 60 15 0 5 20 12 45 16
25 3 45 10 45 15 0 4 20 11 45 15 25 3 45 10 45 14 0 4 16 11 35 14 19 4 35
11 35 16 0 6 18 13 40 16 22 4 40 10 40 14 0 5 14 11 30 15 17 4 30 10 30 15
0 5 14 11 30 15 17 4 30 10 30 15 0 5 14 11 30 15 17 4 30 10 30 15 0 5 13 11
29 15 16 3 32 13 35 21 3 8 12 14 21 14 8 0 15 4 15 9 0 5 11 12 25 15 14 4
25 11 25 16 0 6 7 10 15 10 9 0 18 7 21 15 4 8 12 15 20 15 8 0 22 9 31 20 10
11 23 20 30 20 7 0 13 4 13 9 0 5 10 13 22 17 12 4 33 20 47 35 14 16 29 29
34 29 5 0 29 20 54 45 24 25 48 45 53 45 11 0 170 159 170 170 0 5 20 29 45
53 25 25 45 49 45 54 0 5 13 20 29 34 15 14 31 35 35 47 4 12 12 22 17 22 5 0
9 6 9 13 0 7 9 20 20 30 11 9 20 23 20 31 0 8 7 16 15 20 8 3 15 12 15 21 0 8
4 15 9 15 5 0 12 11 15 25 4 14 10 25 15 25 5 0 12 13 16 29 3 16 13 32 21 35
8 3 14 12 14 21 0 8 4 15 9 15 5 0 12 14 16 30 4 17 10 30 15 30 5 0 11 14 15
30 4 17 10 30 15 30 5 0 11 14 15 30 4 17 10 30 15 30 4 0 10 18 14 40 3 22
10 40 15 40 5 0 12 16 15 35 4 19 11 35 15 35 5 0 12 20 15 45 4 25 11 45 16
45 5 0 12 25 15 55 4 30 11 55 15 55 4 0 11 26 15 58 4 31 11 59 16 62 4 3 11
37 15 75 4 39 11 73 16 76 5 3 11 74 15 157 3 84 10 152 15 152 4 0 8 38 8 85
0 47 -4 85 -8 85 -5 0 -12 73 -16 162 -3 89 -10 164 -15 168 -5 3 -13 38 -16
78 -4 39 -11 72 -15 72 -5 0 -11 27 -15 60 -4 33 -11 60 -16 60 -4 0 -11 23
-15 50 -4 28 -10 50 -14 50 -4 0 -10 18 -14 40 -3 22 -10 40 -16 40 -5 0 -12
20 -16 45 -3 25 -10 45 -14 45 -5 0 -11 14 -15 30 -4 17 -10 30 -15 30 -4 0
-11 16 -14 35 -4 19 -11 35 -16 35 -4 0 -11 14 -15 30 -4 17 -10 30 -15 30 -5
0 -11 14 -15 30 -4 17 -11 30 -16 30 -5 0 -11 11 -15 25 -3 14 -10 25 -14 25
-5 0 -11 13 -15 29 -3 16 -13 32 -21 35 -8 3 -14 12 -14 21 0 8 -4 15 -10 15
-5 0 -12 11 -16 24 -3 14 -12 27 -20 30 -8 3 -14 12 -14 21 0 8 -4 15 -9 15
-5 0 -13 10 -16 22 -4 11 -18 31 -31 43 -13 12 -24 26 -24 32 0 5 -13 20 -30
33 -16 14 -29 30 -30 37 0 6 -29 41 -65 76 -36 36 -65 67 -65 71 0 10 -34 46
-43 46 -5 0 -40 32 -78 70 -38 39 -74 70 -79 70 -4 0 -22 14 -38 30 -17 17
-34 30 -39 30 -5 0 -16 9 -26 20 -9 11 -23 20 -31 20 -8 0 -16 7 -20 15 -3 8
-12 15 -21 15 -8 0 -15 4 -15 10 0 5 -11 12 -24 16 -14 3 -27 12 -30 20 -3 8
-12 14 -21 14 -8 0 -15 4 -15 10 0 5 -11 12 -25 16 -14 3 -25 10 -25 14 0 5
-13 11 -29 15 -16 3 -32 13 -35 21 -3 8 -12 14 -21 14 -8 0 -15 4 -15 9 0 5
-13 12 -30 16 -16 4 -30 10 -30 15 0 5 -13 11 -30 15 -16 4 -30 10 -30 15 0 4
-18 10 -40 14 -22 3 -40 10 -40 15 0 5 -16 12 -35 15 -19 4 -35 11 -35 15 0 5
-20 12 -45 15 -25 4 -45 11 -45 15 0 5 -20 12 -45 15 -25 4 -45 11 -45 16 0 5
-25 12 -55 15 -30 4 -55 11 -55 15 0 4 -28 11 -62 15 -35 4 -65 11 -68 16 -3
4 -51 11 -108 15 -56 4 -102 11 -102 15 0 5 -121 9 -270 9 -148 0 -270 -4
-270 -9z"/>
</g>
</svg>
